<svg width="240" height="240" viewBox="0 0 240 240" fill="none" xmlns="http://www.w3.org/2000/svg">

  <!-- SHADOW -->
  <ellipse cx="120" cy="192" rx="72" ry="10" fill="#00000020"></ellipse>

  <!-- PIPE LEFT -->
  <rect x="16" y="102" width="72" height="36" rx="8" fill="#64748B"></rect>
  <rect x="24" y="110" width="56" height="20" rx="4" fill="#94A3B8"></rect>

  <!-- PIPE RIGHT -->
  <rect x="152" y="102" width="72" height="36" rx="8" fill="#64748B"></rect>
  <rect x="160" y="110" width="56" height="20" rx="4" fill="#94A3B8"></rect>

  <!-- VALVE BODY -->
  <path d="M88 82
           L152 82
           L178 120
           L152 158
           L88 158
           L62 120Z" fill="#334155"></path>

  <!-- INNER BODY -->
  <path d="M96 94
           L144 94
           L164 120
           L144 146
           L96 146
           L76 120Z" fill="#475569"></path>

  <!-- CENTER SEAL -->
  <circle cx="120" cy="120" r="18" fill="#CBD5E1"></circle>
  <circle cx="120" cy="120" r="8" fill="#64748B"></circle>

  <!-- VALVE HANDLE -->
<g>

  <!-- STEM -->
  <rect x="116" y="64" width="8" height="30" rx="4" fill="#94A3B8"></rect>

  <!-- HANDLE -->
  <rect x="84" y="52" width="72" height="16" rx="8" fill="#1E293B"></rect>

  <!-- HANDLE GRIPS -->
  <circle cx="92" cy="60" r="7" fill="#E2E8F0"></circle>
  <circle cx="148" cy="60" r="7" fill="#E2E8F0"></circle>

</g>
  <!-- TOP CAP -->
  <rect x="104" y="84" width="32" height="16" rx="6" fill="#1E293B"></rect>

  <!-- BOLTS -->
  <circle cx="82" cy="120" r="4" fill="#CBD5E1"></circle>
  <circle cx="158" cy="120" r="4" fill="#CBD5E1"></circle>
  <circle cx="120" cy="96" r="4" fill="#CBD5E1"></circle>
  <circle cx="120" cy="144" r="4" fill="#CBD5E1"></circle>

  <!-- FLOW INDICATOR -->
  <g opacity="0.9">

    <path d="M96 120H144" stroke="#38BDF8" stroke-width="4" stroke-linecap="round" stroke-dasharray="10 8">

      <animate attributeName="stroke-dashoffset" from="18" to="0" dur="0.8s" repeatCount="indefinite"></animate>

    </path>

  </g>

  <!-- STATUS LIGHT -->
  <circle cx="176" cy="82" r="5" fill="#22C55E">

    <animate attributeName="opacity" values="1;0.4;1" dur="1.2s" repeatCount="indefinite"></animate>

  </circle>

</svg>